<svg width="26" height="26" viewBox="0 0 26 26" fill="none" xmlns="http://www.w3.org/2000/svg">
<path d="M13 26C20.168 26 26 20.1679 26 13C26 5.83206 20.168 0 13 0C5.83201 0 0 5.83206 0 13C0 20.1679 5.83201 26 13 26ZM13 1.625C19.2726 1.625 24.3751 6.7274 24.3751 13C24.3751 19.2724 19.2726 24.3751 13 24.3751C6.7274 24.3751 1.625 19.2724 1.625 13C1.625 6.7274 6.7274 1.625 13 1.625ZM13 5.07801C15.5911 5.07801 17.6922 7.16139 17.6922 9.73216C17.6922 12.3022 15.592 14.3854 13 14.3854C10.4082 14.3854 8.30861 12.302 8.30861 9.73216C8.30861 7.16139 10.409 5.07801 13 5.07801ZM13 13.0552C14.851 13.0552 16.3516 11.5668 16.3516 9.73123C16.3516 7.895 14.851 6.40739 13 6.40739C11.149 6.40739 9.64839 7.89584 9.64839 9.73123C9.64839 11.5676 11.149 13.0552 13 13.0552ZM13 13.0552C16.7026 13.0552 19.7032 16.0314 19.7032 19.7032H18.3624C18.3624 16.7668 15.9616 14.3854 13 14.3854C10.0384 14.3854 7.63745 16.7668 7.63745 19.7032H6.29684C6.29684 16.0314 9.29739 13.0552 13 13.0552Z" fill="black"/>
</svg>
