<svg xmlns="http://www.w3.org/2000/svg" width="17" height="17" fill="none" viewBox="0 0 17 17"><path fill="#A192FB" d="M3.59615 7.19231C5.58226 7.19231 7.19231 5.58226 7.19231 3.59615C7.19231 1.61005 5.58226 0 3.59615 0C1.61005 0 0 1.61005 0 3.59615C0 5.58226 1.61005 7.19231 3.59615 7.19231Z"/><path fill="#93F438" d="M11.7885 7.19231C13.7746 7.19231 15.3847 5.58226 15.3847 3.59615C15.3847 1.61005 13.7746 0 11.7885 0C9.80244 0 8.19238 1.61005 8.19238 3.59615C8.19238 5.58226 9.80244 7.19231 11.7885 7.19231Z"/><path fill="#FBE62B" d="M3.59615 15.3847C5.58226 15.3847 7.19231 13.7746 7.19231 11.7885C7.19231 9.80244 5.58226 8.19238 3.59615 8.19238C1.61005 8.19238 0 9.80244 0 11.7885C0 13.7746 1.61005 15.3847 3.59615 15.3847Z"/><path fill="#FE92B2" d="M11.7885 15.3847C13.7746 15.3847 15.3847 13.7746 15.3847 11.7885C15.3847 9.80244 13.7746 8.19238 11.7885 8.19238C9.80244 8.19238 8.19238 9.80244 8.19238 11.7885C8.19238 13.7746 9.80244 15.3847 11.7885 15.3847Z"/></svg>