<svg xmlns="http://www.w3.org/2000/svg" width="22" height="22" fill="none" viewBox="0 0 22 22"><path fill="#E9FDD6" d="M11 22C17.0751 22 22 17.0751 22 11C22 4.92487 17.0751 0 11 0C4.92487 0 0 4.92487 0 11C0 17.0751 4.92487 22 11 22Z"/><path fill="#A192FB" d="M17.8528 8.57997L17.9518 8.86596C18.019 9.12394 18.0208 9.39457 17.9573 9.65345C17.8937 9.91233 17.7667 10.1513 17.5877 10.3489C17.4088 10.5464 17.1834 10.6963 16.932 10.785C16.6806 10.8737 16.4111 10.8984 16.1478 10.857C15.6509 10.8148 15.1511 10.8898 14.6884 11.0758C14.2257 11.2619 13.813 11.5538 13.4836 11.9282C13.1541 12.3025 12.9171 12.7489 12.7914 13.2315C12.6657 13.7141 12.6548 14.2194 12.7598 14.707C12.8259 15.0287 12.9448 15.3372 13.1118 15.62C13.2583 15.8448 13.3462 16.1028 13.3673 16.3703C13.3885 16.6379 13.3422 16.9065 13.2328 17.1515C13.1234 17.3966 12.9544 17.6103 12.7411 17.7732C12.5278 17.9361 12.277 18.0429 12.0118 18.084H11.7148C10.3834 18.2048 9.04486 17.95 7.85103 17.3484C6.6572 16.7469 5.65597 15.8227 4.96091 14.6808C4.26585 13.5388 3.90481 12.2249 3.91885 10.8882C3.93289 9.55141 4.32138 8.24536 5.04027 7.11828C5.75916 5.9912 6.77964 5.08824 7.98584 4.51189C9.19205 3.93553 10.5357 3.70888 11.8642 3.85765C13.1927 4.00643 14.4529 4.52468 15.5017 5.35357C16.5506 6.18246 17.3461 7.28879 17.7978 8.54697L17.8528 8.57997Z"/><path fill="#E9FDD6" d="M7.95313 8.62404C8.39054 8.62404 8.74513 8.26945 8.74513 7.83204C8.74513 7.39463 8.39054 7.04004 7.95313 7.04004C7.51572 7.04004 7.16113 7.39463 7.16113 7.83204C7.16113 8.26945 7.51572 8.62404 7.95313 8.62404Z"/><path fill="#E9FDD6" d="M11.1211 7.02907C11.5585 7.02907 11.9131 6.67448 11.9131 6.23707C11.9131 5.79966 11.5585 5.44507 11.1211 5.44507C10.6837 5.44507 10.3291 5.79966 10.3291 6.23707C10.3291 6.67448 10.6837 7.02907 11.1211 7.02907Z"/><path fill="#E9FDD6" d="M6.35792 11.792C6.79533 11.792 7.14992 11.4374 7.14992 11C7.14992 10.5626 6.79533 10.208 6.35792 10.208C5.92051 10.208 5.56592 10.5626 5.56592 11C5.56592 11.4374 5.92051 11.792 6.35792 11.792Z"/><path fill="#E9FDD6" d="M14.2998 8.62404C14.7372 8.62404 15.0918 8.26945 15.0918 7.83204C15.0918 7.39463 14.7372 7.04004 14.2998 7.04004C13.8624 7.04004 13.5078 7.39463 13.5078 7.83204C13.5078 8.26945 13.8624 8.62404 14.2998 8.62404Z"/></svg>