<svg width="15" height="14" viewBox="0 0 15 14" fill="none" xmlns="http://www.w3.org/2000/svg">
<path d="M10.1531 0C13.0307 0 14.875 2.34784 14.875 5.50769C14.875 7.95977 12.6943 10.6603 8.39787 13.6947C8.11572 13.8935 7.78069 14 7.4375 14C7.0943 14 6.75927 13.8935 6.47713 13.6947C2.18067 10.6603 0 7.95977 0 5.50769C0 2.34784 1.84431 0 4.72188 0C5.76109 0 6.46598 0.369487 7.4375 1.20779C8.40921 0.369676 9.11391 0 10.1531 0ZM10.1531 1.12C9.43075 1.12 8.92835 1.38941 8.11431 2.09622C8.07657 2.12895 7.8633 2.31568 7.80156 2.36903C7.69982 2.45669 7.57082 2.5048 7.4375 2.5048C7.30418 2.5048 7.17518 2.45669 7.07343 2.36903C7.0117 2.31549 6.79843 2.12895 6.76069 2.09622C5.94665 1.38941 5.44425 1.12 4.72188 1.12C2.52503 1.12 1.11562 2.90746 1.11562 5.48706C1.11562 7.45407 3.09456 9.89537 7.11731 12.7258C7.21146 12.7919 7.32313 12.8273 7.4375 12.8273C7.55187 12.8273 7.66353 12.7919 7.75768 12.7258C11.7804 9.89556 13.7594 7.45407 13.7594 5.48706C13.7594 2.90746 12.35 1.12 10.1531 1.12Z" fill="white"/>
</svg>
