<svg width="22" height="22" viewBox="0 0 22 22" fill="none" xmlns="http://www.w3.org/2000/svg">
<path d="M11 22C17.0751 22 22 17.0751 22 11C22 4.92487 17.0751 0 11 0C4.92487 0 0 4.92487 0 11C0 17.0751 4.92487 22 11 22Z" fill="#E9FDD6"/>
<path d="M18 11.8601C17.9997 12.0714 17.9525 12.28 17.8619 12.471C17.7713 12.6619 17.6394 12.8303 17.4759 12.9642C17.3124 13.0981 17.1212 13.1941 16.9162 13.2452C16.7111 13.2964 16.4972 13.3014 16.29 13.2601C12.8158 12.5519 9.22654 12.6374 5.78999 13.5101C5.57807 13.5652 5.35634 13.5709 5.14186 13.5268C4.92738 13.4827 4.72588 13.3899 4.55293 13.2556C4.37998 13.1213 4.24017 12.949 4.1443 12.7522C4.04843 12.5553 3.99908 12.339 4.00001 12.1201V11.8501C3.99781 10.7678 4.37157 9.7184 5.05739 8.88119C5.74321 8.04398 6.69852 7.47095 7.76002 7.26006C9.94765 6.81533 12.2024 6.81533 14.39 7.26006C15.4291 7.49455 16.3555 8.08012 17.0131 8.91807C17.6707 9.75601 18.0192 10.7951 18 11.8601V11.8601Z" fill="#FBE62B"/>
<path d="M9.62 7.25995C9.62 6.8126 9.25735 6.44995 8.81 6.44995C8.36265 6.44995 8 6.8126 8 7.25995V8.63995C8 9.0873 8.36265 9.44995 8.81 9.44995C9.25735 9.44995 9.62 9.0873 9.62 8.63995V7.25995Z" fill="#E9FDD6"/>
<path d="M12.62 7.25995C12.62 6.8126 12.2574 6.44995 11.81 6.44995C11.3626 6.44995 11 6.8126 11 7.25995V8.63995C11 9.0873 11.3626 9.44995 11.81 9.44995C12.2574 9.44995 12.62 9.0873 12.62 8.63995V7.25995Z" fill="#E9FDD6"/>
<path d="M15.62 7.25995C15.62 6.8126 15.2574 6.44995 14.81 6.44995C14.3626 6.44995 14 6.8126 14 7.25995V8.63995C14 9.0873 14.3626 9.44995 14.81 9.44995C15.2574 9.44995 15.62 9.0873 15.62 8.63995V7.25995Z" fill="#E9FDD6"/>
</svg>
