<svg width="26" height="26" viewBox="0 0 26 26" fill="none" xmlns="http://www.w3.org/2000/svg">
<path d="M22.9357 21.3833C22.9415 21.3746 22.9502 21.3658 22.956 21.3571C24.8567 19.0967 26 16.1833 26 13C26 9.81674 24.8567 6.90335 22.9589 4.64286C22.9531 4.63415 22.9444 4.62835 22.9386 4.61964C22.9067 4.58192 22.8777 4.5471 22.8458 4.51228C22.8342 4.49777 22.8225 4.48616 22.8109 4.47165L22.692 4.33527L22.6891 4.33237C22.6455 4.28304 22.5991 4.23371 22.5556 4.18437L22.5527 4.18147C22.4598 4.08281 22.367 3.98415 22.2712 3.88839L22.2683 3.88549L22.129 3.74621L22.1203 3.7375C22.0768 3.69397 22.0333 3.65335 21.9897 3.61272C21.9752 3.59821 21.9607 3.58371 21.9433 3.5692C21.9143 3.54018 21.8853 3.51406 21.8562 3.48795C21.8475 3.47924 21.8359 3.47054 21.8272 3.45893C19.5116 1.31161 16.4096 0 13 0C9.5904 0 6.48839 1.31161 4.16987 3.45893C4.16116 3.46763 4.14955 3.47634 4.14085 3.48795C4.11183 3.51406 4.08281 3.54308 4.05379 3.5721C4.03929 3.58661 4.02478 3.60112 4.00737 3.61563C3.96384 3.65625 3.92031 3.69978 3.87679 3.7404L3.86808 3.74911L3.72879 3.88839L3.72589 3.89129C3.63013 3.98705 3.53728 4.08571 3.44442 4.18437L3.44152 4.18728C3.39509 4.23661 3.35156 4.28594 3.30804 4.33527L3.30513 4.33817C3.26451 4.3817 3.22388 4.42812 3.18616 4.47455C3.17455 4.48906 3.16295 4.50067 3.15134 4.51518C3.11942 4.55 3.0904 4.58772 3.05848 4.62254C3.05268 4.63125 3.04397 4.63705 3.03817 4.64576C1.1433 6.90335 0 9.81674 0 13C0 16.1833 1.1433 19.0967 3.04107 21.3571C3.04688 21.3658 3.05558 21.3746 3.06138 21.3833L3.15134 21.4906C3.16295 21.5051 3.17455 21.5167 3.18616 21.5312L3.30513 21.6676C3.30513 21.6705 3.30804 21.6705 3.30804 21.6734C3.35156 21.7228 3.39509 21.7721 3.44152 21.8185L3.44442 21.8214C3.53728 21.9201 3.63013 22.0187 3.72299 22.1145L3.72589 22.1174C3.77232 22.1638 3.81585 22.2103 3.86228 22.2538L3.87098 22.2625C3.96674 22.3583 4.0654 22.4511 4.16406 22.5411C6.48839 24.6884 9.5904 26 13 26C16.4096 26 19.5116 24.6884 21.8301 22.5411C21.929 22.4505 22.0257 22.3576 22.1203 22.2625L22.129 22.2538C22.1754 22.2074 22.2219 22.1638 22.2654 22.1174L22.2683 22.1145C22.3641 22.0187 22.4569 21.9201 22.5469 21.8214L22.5498 21.8185C22.5933 21.7692 22.6397 21.7228 22.6833 21.6734C22.6833 21.6705 22.6862 21.6705 22.6862 21.6676C22.7268 21.6241 22.7674 21.5777 22.8051 21.5312C22.8167 21.5167 22.8283 21.5051 22.84 21.4906C22.8728 21.4556 22.9047 21.4198 22.9357 21.3833ZM23.0547 17.2453C22.6542 18.1913 22.1261 19.0676 21.4819 19.8627C20.7564 19.2357 19.9632 18.6916 19.117 18.2406C19.4536 16.8797 19.6625 15.3853 19.7176 13.8125H23.8817C23.7946 14.9993 23.5161 16.1513 23.0547 17.2453ZM23.8817 12.1875H19.7176C19.6625 10.6147 19.4536 9.12031 19.117 7.75937C19.9672 7.3067 20.7594 6.76116 21.4819 6.13728C22.8822 7.86086 23.7199 9.97267 23.8817 12.1875ZM17.2453 2.94531C18.3973 3.43281 19.4449 4.10603 20.3676 4.95335C19.8316 5.40978 19.2546 5.81581 18.644 6.16629C18.1884 4.86049 17.6051 3.72589 16.9261 2.81763C17.0335 2.85826 17.1408 2.90179 17.2453 2.94531ZM14.6163 23.2752C14.3493 23.4841 14.0824 23.6437 13.8125 23.7511V18.3683C14.9639 18.4486 16.0962 18.705 17.1699 19.1286C16.929 19.8424 16.6504 20.5011 16.3283 21.096C15.8234 22.0362 15.2315 22.7877 14.6163 23.2752ZM16.3283 4.90402C16.6475 5.50179 16.929 6.16049 17.1699 6.87143C16.0962 7.29496 14.9639 7.55137 13.8125 7.6317V2.25179C14.0795 2.35915 14.3493 2.51585 14.6163 2.72768C15.2315 3.21228 15.8234 3.96384 16.3283 4.90402ZM13.8125 16.7404V13.8125H18.0926C18.0462 15.0951 17.8866 16.34 17.6196 17.521L17.6109 17.5558C16.3932 17.094 15.1125 16.8191 13.8125 16.7404ZM13.8125 12.1875V9.2596C15.1415 9.17835 16.4183 8.89687 17.6109 8.4442L17.6196 8.47902C17.8866 9.66004 18.0462 10.902 18.0926 12.1875H13.8125ZM12.1875 13.8125V16.7404C10.8585 16.8217 9.5817 17.1031 8.38906 17.5558L8.38036 17.521C8.11339 16.34 7.95379 15.098 7.90737 13.8125H12.1875ZM7.90737 12.1875C7.95379 10.9049 8.11339 9.66004 8.38036 8.47902L8.38906 8.4442C9.5817 8.89687 10.8556 9.17835 12.1875 9.2596V12.1875H7.90737ZM12.1875 18.3683V23.7482C11.9205 23.6408 11.6507 23.4842 11.3837 23.2723C10.7685 22.7877 10.1737 22.0333 9.66875 21.0931C9.34955 20.4953 9.06808 19.8366 8.82723 19.1257C9.9067 18.702 11.0297 18.4496 12.1875 18.3683ZM12.1875 7.6317C11.0361 7.55137 9.90382 7.29496 8.83013 6.87143C9.07098 6.15759 9.34955 5.49888 9.67165 4.90402C10.1766 3.96384 10.7685 3.20937 11.3866 2.72478C11.6536 2.51585 11.9205 2.35625 12.1904 2.24888V7.6317H12.1875ZM8.75469 2.94531C8.86205 2.90179 8.96652 2.85826 9.07388 2.81763C8.39487 3.72589 7.81161 4.86049 7.35603 6.16629C6.74665 5.81808 6.1692 5.41183 5.63237 4.95335C6.55513 4.10603 7.60268 3.43281 8.75469 2.94531ZM2.94531 8.75469C3.34576 7.80871 3.87388 6.93237 4.51808 6.13728C5.24062 6.76116 6.03281 7.3067 6.88304 7.75937C6.54643 9.12031 6.3375 10.6147 6.28237 12.1875H2.1183C2.20536 11.0007 2.48393 9.84866 2.94531 8.75469ZM2.1183 13.8125H6.28237C6.3375 15.3853 6.54643 16.8797 6.88304 18.2406C6.03682 18.6916 5.24359 19.2357 4.51808 19.8627C3.11776 18.1391 2.28013 16.0273 2.1183 13.8125ZM8.75469 23.0547C7.60268 22.5672 6.55513 21.894 5.63237 21.0466C6.1692 20.5882 6.74665 20.1848 7.35603 19.8337C7.81161 21.1395 8.39487 22.2741 9.07388 23.1824C8.96652 23.1417 8.85915 23.0982 8.75469 23.0547ZM17.2453 23.0547C17.1379 23.0982 17.0335 23.1417 16.9261 23.1824C17.6051 22.2741 18.1884 21.1395 18.644 19.8337C19.2533 20.1819 19.8308 20.5882 20.3676 21.0466C19.45 21.8904 18.3937 22.5697 17.2453 23.0547Z" fill="#333333"/>
</svg>
