<svg width="22" height="22" viewBox="0 0 22 22" fill="none" xmlns="http://www.w3.org/2000/svg">
<path d="M11 22C17.0751 22 22 17.0751 22 11C22 4.92487 17.0751 0 11 0C4.92487 0 0 4.92487 0 11C0 17.0751 4.92487 22 11 22Z" fill="#E9FDD6"/>
<path d="M16.52 7H5.48C4.66262 7 4 7.66262 4 8.48V14.52C4 15.3374 4.66262 16 5.48 16H16.52C17.3374 16 18 15.3374 18 14.52V8.48C18 7.66262 17.3374 7 16.52 7Z" fill="#FE92B2"/>
<path d="M12.3399 10.9301L10.3399 9.76008C10.2394 9.6997 10.1247 9.66717 10.0075 9.66582C9.89026 9.66446 9.77481 9.69434 9.67299 9.75238C9.57116 9.81042 9.48661 9.89453 9.42805 9.99606C9.3695 10.0976 9.33909 10.2129 9.33986 10.3301V12.6701C9.33909 12.7873 9.3695 12.9026 9.42805 13.0041C9.48661 13.1057 9.57116 13.1898 9.67299 13.2478C9.77481 13.3058 9.89026 13.3357 10.0075 13.3344C10.1247 13.333 10.2394 13.3005 10.3399 13.2401L12.3399 12.0701C12.4395 12.012 12.5221 11.9287 12.5795 11.8287C12.6369 11.7287 12.6671 11.6154 12.6671 11.5001C12.6671 11.3848 12.6369 11.2715 12.5795 11.1714C12.5221 11.0714 12.4395 10.9882 12.3399 10.9301Z" fill="#E9FDD6"/>
</svg>
