<svg width="22" height="22" viewBox="0 0 22 22" fill="none" xmlns="http://www.w3.org/2000/svg">
<path d="M11 22C17.0751 22 22 17.0751 22 11C22 4.92487 17.0751 0 11 0C4.92487 0 0 4.92487 0 11C0 17.0751 4.92487 22 11 22Z" fill="#E9FDD6"/>
<path d="M11 18C14.866 18 18 14.866 18 11C18 7.13401 14.866 4 11 4C7.13401 4 4 7.13401 4 11C4 14.866 7.13401 18 11 18Z" fill="#93F438"/>
<path d="M11 13C12.1046 13 13 12.1046 13 11C13 9.89543 12.1046 9 11 9C9.89543 9 9 9.89543 9 11C9 12.1046 9.89543 13 11 13Z" fill="#E9FDD6"/>
<path d="M11 12C11.5523 12 12 11.5523 12 11C12 10.4477 11.5523 10 11 10C10.4477 10 10 10.4477 10 11C10 11.5523 10.4477 12 11 12Z" fill="#93F438"/>
</svg>
