<svg width="22" height="22" viewBox="0 0 22 22" fill="none" xmlns="http://www.w3.org/2000/svg">
<path d="M11 22C17.0751 22 22 17.0751 22 11C22 4.92487 17.0751 0 11 0C4.92487 0 0 4.92487 0 11C0 17.0751 4.92487 22 11 22Z" fill="#E9FDD6"/>
<path d="M14.2451 7H4.7549C4.33798 7 4 7.38811 4 7.86687V14.1331C4 14.6119 4.33798 15 4.7549 15H14.2451C14.662 15 15 14.6119 15 14.1331V7.86687C15 7.38811 14.662 7 14.2451 7Z" fill="#A192FB"/>
<path d="M15.102 10.6867L17.6915 8.04861C17.7227 8.01681 17.7581 8.00004 17.7942 8C17.8303 7.99996 17.8657 8.01665 17.897 8.04838C17.9282 8.08012 17.9542 8.1258 17.9723 8.18082C17.9904 8.23584 17.9999 8.29829 18 8.36189V13.6381C17.9999 13.7017 17.9904 13.7642 17.9723 13.8192C17.9542 13.8742 17.9282 13.9199 17.897 13.9516C17.8657 13.9834 17.8303 14 17.7942 14C17.7581 14 17.7227 13.9832 17.6915 13.9514L15.102 11.3133C15.071 11.2813 15.0452 11.2356 15.0273 11.1806C15.0094 11.1257 15 11.0634 15 11C15 10.9366 15.0094 10.8743 15.0273 10.8194C15.0452 10.7644 15.071 10.7187 15.102 10.6867Z" fill="#A192FB"/>
<path d="M6.78027 10.23C7.19449 10.23 7.53027 9.89419 7.53027 9.47998C7.53027 9.06577 7.19449 8.72998 6.78027 8.72998C6.36606 8.72998 6.03027 9.06577 6.03027 9.47998C6.03027 9.89419 6.36606 10.23 6.78027 10.23Z" fill="#E9FDD6"/>
</svg>
