<svg width="22" height="22" viewBox="0 0 22 22" fill="none" xmlns="http://www.w3.org/2000/svg">
<path d="M11 22C17.0751 22 22 17.0751 22 11C22 4.92487 17.0751 0 11 0C4.92487 0 0 4.92487 0 11C0 17.0751 4.92487 22 11 22Z" fill="#E9FDD6"/>
<path d="M3.74033 8H18.2582C18.3658 7.99992 18.4721 8.02294 18.5698 8.06749C18.6674 8.11204 18.7541 8.17706 18.8237 8.25799C18.8934 8.33893 18.9443 8.43386 18.9731 8.5362C19.0018 8.63853 19.0076 8.74582 18.9901 8.8506L18.2675 13.3781C18.2409 13.551 18.1525 13.7087 18.0183 13.8228C17.884 13.9369 17.7127 13.9998 17.5356 14H13.8945C13.7234 13.9954 13.5581 13.9379 13.422 13.8354L11.847 12.5457C11.7121 12.4299 11.5394 12.3661 11.3606 12.3661C11.1818 12.3661 11.0091 12.4299 10.8742 12.5457L9.51228 13.7805C9.3743 13.9017 9.19672 13.9699 9.012 13.9726H4.83357C4.66716 13.9732 4.50537 13.9184 4.37429 13.8172C4.2432 13.716 4.15041 13.5742 4.11089 13.4146L3.00837 8.84145C2.99238 8.73734 2.99937 8.63107 3.02879 8.52986C3.05821 8.42865 3.10938 8.33489 3.17887 8.25501C3.24835 8.17512 3.33451 8.111 3.43141 8.06699C3.5283 8.02298 3.63367 8.00013 3.74033 8Z" fill="#84F31D"/>
</svg>
