<svg width="73" height="73" viewBox="0 0 73 73" fill="none" xmlns="http://www.w3.org/2000/svg">
<path d="M23.0567 5.56303C22.4474 4.16073 23.0876 2.5192 24.532 2.01784C31.0912 -0.258828 38.1845 -0.623472 44.975 0.997553C52.6658 2.83348 59.5525 7.11716 64.599 13.2042C69.6455 19.2912 72.579 26.8523 72.958 34.7501C73.3371 42.6479 71.1413 50.4553 66.7009 56.9976C62.2606 63.54 55.8158 68.4635 48.3362 71.0276C40.8566 73.5916 32.7466 73.6575 25.2263 71.2153C17.7061 68.7732 11.1822 63.955 6.6361 57.4856C2.62216 51.7736 0.341807 45.047 0.0355208 38.1106C-0.0319273 36.5831 1.2572 35.3821 2.7854 35.4305C4.3136 35.479 5.50023 36.7593 5.58839 38.2857C5.91967 44.0213 7.84224 49.5718 11.1663 54.3022C15.0228 59.7902 20.557 63.8775 26.9365 65.9492C33.316 68.0209 40.1957 67.965 46.5407 65.7899C52.8857 63.6148 58.3528 59.4381 62.1196 53.8882C65.8864 48.3383 67.7491 41.7153 67.4275 35.0156C67.1059 28.3158 64.6175 21.9017 60.3365 16.738C56.0555 11.5744 50.2136 7.94054 43.6894 6.38311C38.0659 5.04069 32.1977 5.30356 26.7452 7.11362C25.2941 7.59533 23.6661 6.96532 23.0567 5.56303Z" fill="url(#paint0_linear_768_312)"/>
<defs>
<linearGradient id="paint0_linear_768_312" x1="6.5728" y1="41.7143" x2="72.168" y2="41.5643" gradientUnits="userSpaceOnUse">
<stop stop-color="#FFEF9C"/>
<stop offset="0.526042" stop-color="#FFA8A8"/>
<stop offset="1" stop-color="#C7FC83"/>
</linearGradient>
</defs>
</svg>
