<svg xmlns="http://www.w3.org/2000/svg" width="22" height="22" fill="none" viewBox="0 0 22 22"><path fill="#333" d="M15.0164 0.868423C19.2723 0.868423 22 4.26662 22 8.84008C22 12.3891 18.7748 16.2978 12.4204 20.6897C12.0031 20.9774 11.5076 21.1316 11 21.1316C10.4924 21.1316 9.99691 20.9774 9.57963 20.6897C3.2252 16.2978 0 12.3891 0 8.84008C0 4.26662 2.72772 0.868423 6.98362 0.868423C8.5206 0.868423 9.56312 1.40321 11 2.61654C12.4372 1.40348 13.4794 0.868423 15.0164 0.868423ZM15.0164 2.48948C13.948 2.48948 13.2049 2.87941 12.001 3.90243C11.9452 3.9498 11.6297 4.22007 11.5384 4.29729C11.388 4.42416 11.1972 4.49379 11 4.49379C10.8028 4.49379 10.612 4.42416 10.4615 4.29729C10.3702 4.21979 10.0548 3.9498 9.999 3.90243C8.79505 2.87941 8.052 2.48948 6.98362 2.48948C3.7345 2.48948 1.65 5.0766 1.65 8.81023C1.65 11.6572 4.57682 15.1907 10.5264 19.2874C10.6657 19.383 10.8308 19.4342 11 19.4342C11.1692 19.4342 11.3343 19.383 11.4735 19.2874C17.4232 15.1909 20.35 11.6572 20.35 8.81023C20.35 5.0766 18.2655 2.48948 15.0164 2.48948Z"/></svg>